#!OML:ASF H:\Terrain\Patient Classification 1\Takeo\Monday\TakeoMonday.ASF
:FULLY-SPECIFIED
:DEGREES
1
root 9.62745 17.7973 -1.03923 -6.37909 -22.4014 3.49382
lowerback 5.60025 1.12798 -0.0431347
upperback 2.77139 1.49305 0.791281
thorax -0.311801 0.736113 0.749946
lowerneck -8.90502 6.57112 0.322245
upperneck 1.33699 8.87524 -3.9415
head 2.15388 4.30658 -0.892614
rclavicle -5.42682e-014 8.74653e-015
rhumerus -26.2308 10.8446 -85.4595
rradius 32.4455
rwrist -15.5297
rhand -23.7652 16.4224
rfingers 7.12502
rthumb 2.70415 -13.5402
lclavicle -5.42682e-014 8.74653e-015
lhumerus -31.3304 15.8471 84.3404
lradius 34.38
lwrist 26.2658
lhand -24.6861 18.635
lfingers 7.12502
lthumb 1.81469 48.607
rfemur 5.94355 -4.3449 19.6053
rtibia 16.8854
rfoot -16.8444 -20.544
rtoes 1.44864
lfemur -6.98547 0.557427 -21.3734
ltibia 17.0463
lfoot -2.75734 18.7084
ltoes -9.6083
2
root 9.62656 17.8064 -1.04088 -6.77019 -22.4714 4.31411
lowerback 5.63075 1.18462 -0.822496
upperback 2.76579 1.52792 0.503344
thorax -0.347203 0.748779 0.888507
lowerneck -9.10577 6.53782 0.41069
upperneck 1.57659 8.82346 -3.76365
head 2.26379 4.28043 -0.842888
rclavicle -2.28602e-014 -9.54166e-015
rhumerus -25.9117 11.0482 -85.427
rradius 33.1533
rwrist -15.4785
rhand -23.7137 16.9463
rfingers 7.12502
rthumb 2.7539 -13.0157
lclavicle -2.28602e-014 -9.54166e-015
lhumerus -31.1048 15.6299 84.152
lradius 34.9938
lwrist 26.0345
lhand -24.8257 17.3458
lfingers 7.12502
lthumb 1.67989 47.3189
rfemur 5.58529 -4.31944 18.7449
rtibia 17.7
rfoot -17.3768 -20.3152
rtoes 0.812677
lfemur -6.3733 0.67115 -22.1846
ltibia 16.0051
lfoot -2.47638 18.8758
ltoes -7.21126
